
<svg xmlns="http://www.w3.org/2000/svg" version="1.1" xmlns:xlink="http://www.w3.org/1999/xlink" preserveAspectRatio="none" x="0px" y="0px" width="550px" height="400px" viewBox="0 0 550 400">
<defs>
<image id="P_gina_em_constru__o_psd_Recurso_1_Prancheta_1_Logo_copiar_Recursos_Forma_2" x="0" y="0" width="1366" height="768" xlink:href="./images/P_gina_em_constru__o_psd_Recurso_1_Prancheta_1_Logo_copiar_Recursos_Forma_2.png"/>

<image id="P_gina_em_constru__o_psd_Recurso_1_Prancheta_1_Logo_copiar_Recursos_Forma_2_copiar" x="0" y="0" width="1366" height="768" xlink:href="./images/P_gina_em_constru__o_psd_Recurso_1_Prancheta_1_Logo_copiar_Recursos_Forma_2_copiar.png"/>

<image id="P_gina_em_constru__o_psd_Recurso_1_Prancheta_1_Logo_copiar_Recursos_Forma_3" x="0" y="0" width="1366" height="768" xlink:href="./images/P_gina_em_constru__o_psd_Recurso_1_Prancheta_1_Logo_copiar_Recursos_Forma_3.png"/>

<image id="P_gina_em_constru__o_psd_Recurso_1_Prancheta_1_Logo_copiar_Recursos_Forma_3_copiar" x="0" y="0" width="1366" height="768" xlink:href="./images/P_gina_em_constru__o_psd_Recurso_1_Prancheta_1_Logo_copiar_Recursos_Forma_3_copiar.png"/>

<image id="P_gina_em_constru__o_psd_Recurso_1_Prancheta_1_Logo_copiar_2_Recursos_Forma_2" x="0" y="0" width="1366" height="768" xlink:href="./images/P_gina_em_constru__o_psd_Recurso_1_Prancheta_1_Logo_copiar_2_Recursos_Forma_2.png"/>

<image id="P_gina_em_constru__o_psd_Recurso_1_Prancheta_1_Logo_copiar_2_Recursos_Forma_3" x="0" y="0" width="1366" height="768" xlink:href="./images/P_gina_em_constru__o_psd_Recurso_1_Prancheta_1_Logo_copiar_2_Recursos_Forma_3.png"/>

<image id="P_gina_em_constru__o_psd_Recurso_1_Prancheta_1_Logo_copiar_2_Recursos_Forma_3_copiar_2" x="0" y="0" width="1366" height="768" xlink:href="./images/P_gina_em_constru__o_psd_Recurso_1_Prancheta_1_Logo_copiar_2_Recursos_Forma_3_copiar_2.png"/>

<image id="P_gina_em_constru__o_psd_Recurso_1_Prancheta_1_Logo_copiar_2_Recursos_Forma_3_copiar_3" x="0" y="0" width="1366" height="768" xlink:href="./images/P_gina_em_constru__o_psd_Recurso_1_Prancheta_1_Logo_copiar_2_Recursos_Forma_3_copiar_3.png"/>

<g id="Layer4_0_FILL">
<path fill="#333333" stroke="none" d="
M 570.95 -20
L -12 -20 -12 434.95 570.95 434.95 570.95 -20 Z"/>
</g>

<g id="Mask_P_gina_em_constru__o_psd_Recurso_1_Prancheta_1_Logo_copiar_Forma_2_0_1_MASK_0_FILL">
<path fill="#FFFFFF" stroke="none" d="
M 71.95 113.95
L 128.5 0.55 -0.05 115.95 71.95 113.95 Z"/>
</g>

<g id="Mask_P_gina_em_constru__o_psd_Recurso_1_Prancheta_1_Logo_copiar_Forma_2_copiar_0_1_MASK_0_FILL">
<path fill="#FFFFFF" stroke="none" d="
M 21.6 0
L 92.95 115.95 166.95 121.95 21.6 0 Z"/>
</g>

<g id="Mask_P_gina_em_constru__o_psd_Recurso_1_Prancheta_1_Logo_copiar_Forma_3_0_1_MASK_0_FILL">
<path fill="#FFFFFF" stroke="none" d="
M 728.8 361.85
L 655.1 364.35 752.95 447.7 834 448.7 728.8 361.85 Z"/>
</g>

<g id="Mask_P_gina_em_constru__o_psd_Recurso_1_Prancheta_1_Logo_copiar_Forma_3_copiar_0_1_MASK_0_FILL">
<path fill="#FFFFFF" stroke="none" d="
M 545 362.6
L 626.2 364.85 711.8 286.05 638.25 279.6 545 362.6 Z"/>
</g>

<g id="Mask_P_gina_em_constru__o_psd_Recurso_1_Prancheta_1_Logo_copiar_2_Forma_2_0_1_MASK_0_FILL">
<path fill="#FFFFFF" stroke="none" d="
M 632.75 332.05
Q 611.1 329.2 609.5 329.1 597.3 328.1 588.45 330.5 577.6 333.4 567.95 342
L 545 362.5 723.3 449.05 626.1 364.6 659.8 333.75
Q 648.1 334.1 632.75 332.05
M 752.95 447.45
L 689 568.95 834 448.45 752.95 447.45 Z"/>
</g>

<g id="Mask_P_gina_em_constru__o_psd_Recurso_1_Prancheta_1_Logo_copiar_2_Forma_3_0_1_MASK_0_FILL">
<path fill="#FFFFFF" stroke="none" d="
M 144.95 14
Q 137.3 14.85 129.65 11.65 121 7.15 116.3 4.9 107.9 0.8 99.8 0.2 88.95 -0.65 74.95 3.95
L 0 70.6 81.2 72.85 144.95 14
M 207.15 88.95
Q 194.95 91.4 185.5 95.5 180.2 97.8 172.7 102.35 166.55 106.1 163.3 107 158.4 108.45 151.95 106.95 162.3 116.3 207.95 155.7
L 289 156.7 207.15 88.95 Z"/>
</g>

<g id="Mask_P_gina_em_constru__o_psd_Recurso_1_Prancheta_1_Logo_copiar_2_Forma_3_copiar_2_0_1_MASK_0_FILL">
<path fill="#FFFFFF" stroke="none" d="
M 92.15 40.65
Q 106.05 27.65 120.95 13.95 121.95 2.95 113.6 0.7 107.55 -0.9 93.25 1.95 72.45 6.1 69.25 6.45 56.3 7.8 50.95 2.95
L 0 48.6 81.2 50.85 92.15 40.65
M 236.65 96.95
Q 223.95 93.45 215.3 95.7 209.25 97.25 202.95 102.65 195.05 109.45 192.7 110.7 186.2 114.2 177.45 112.8
L 201.95 133.7 283 134.7
Q 282.5 134.7 237.85 97.45
L 236.65 96.95 Z"/>
</g>

<g id="Mask_P_gina_em_constru__o_psd_Recurso_1_Prancheta_1_Logo_copiar_2_Forma_3_copiar_3_0_1_MASK_0_FILL">
<path fill="#FFFFFF" stroke="none" d="
M 92.15 40.65
Q 106.05 27.65 120.95 13.95 121.95 2.95 113.6 0.7 107.55 -0.9 93.25 1.95 72.45 6.1 69.25 6.45 56.3 7.8 50.95 2.95
L 0 48.6 81.2 50.85 92.15 40.65
M 243.85 97.45
L 243.95 96.95
Q 231.25 93.45 222.4 95.7 216.2 97.25 209.6 102.65 201.3 109.45 198.9 110.7 192.2 114.2 183.45 112.8
L 207.95 133.7 289 134.7 243.85 97.45 Z"/>
</g>
</defs>

<g transform="matrix( 1, 0, 0, 1, 0,0) ">
<use xlink:href="#Layer4_0_FILL"/>
</g>

<g transform="matrix( 1, 0, 0, 1, -432.55,-183) ">
<g transform="matrix( 1, 0, 0, 1, 575,183) ">
<g transform="matrix( 1, 0, 0, 1, 111,84) ">
<mask id="Mask_Mask_1">
<g transform="matrix( 1, 0, 0, 1, 0,0) ">
<use xlink:href="#Mask_P_gina_em_constru__o_psd_Recurso_1_Prancheta_1_Logo_copiar_Forma_2_0_1_MASK_0_FILL"/>
</g>
</mask>

<g mask="url(#Mask_Mask_1)">
<g transform="matrix( 1, 0, 0, 1, -656,-249) ">
<use xlink:href="#P_gina_em_constru__o_psd_Recurso_1_Prancheta_1_Logo_copiar_Recursos_Forma_2"/>
</g>
</g>
</g>

<g transform="matrix( 1, 0, 0, 1, 0,0) ">
<mask id="Mask_Mask_2">
<g transform="matrix( 1, 0, 0, 1, 0,0) ">
<use xlink:href="#Mask_P_gina_em_constru__o_psd_Recurso_1_Prancheta_1_Logo_copiar_Forma_2_copiar_0_1_MASK_0_FILL"/>
</g>
</mask>

<g mask="url(#Mask_Mask_2)">
<g transform="matrix( 1, 0, 0, 1, -545,-165) ">
<use xlink:href="#P_gina_em_constru__o_psd_Recurso_1_Prancheta_1_Logo_copiar_Recursos_Forma_2_copiar"/>
</g>
</g>
</g>

<g transform="matrix( 1, 0, 0, 1, 110,196) ">
<mask id="Mask_Mask_3">
<g transform="matrix( 1, 0, 0, 1, -655,-361) ">
<use xlink:href="#Mask_P_gina_em_constru__o_psd_Recurso_1_Prancheta_1_Logo_copiar_Forma_3_0_1_MASK_0_FILL"/>
</g>
</mask>

<g mask="url(#Mask_Mask_3)">
<g transform="matrix( 1, 0, 0, 1, -655,-361) ">
<use xlink:href="#P_gina_em_constru__o_psd_Recurso_1_Prancheta_1_Logo_copiar_Recursos_Forma_3"/>
</g>
</g>
</g>

<g transform="matrix( 1, 0, 0, 1, 0,114) ">
<mask id="Mask_Mask_4">
<g transform="matrix( 1, 0, 0, 1, -545,-279) ">
<use xlink:href="#Mask_P_gina_em_constru__o_psd_Recurso_1_Prancheta_1_Logo_copiar_Forma_3_copiar_0_1_MASK_0_FILL"/>
</g>
</mask>

<g mask="url(#Mask_Mask_4)">
<g transform="matrix( 1, 0, 0, 1, -545,-279) ">
<use xlink:href="#P_gina_em_constru__o_psd_Recurso_1_Prancheta_1_Logo_copiar_Recursos_Forma_3_copiar"/>
</g>
</g>
</g>
</g>

<g transform="matrix( 1, 0, 0, 1, 575,310) ">
<g transform="matrix( 1, 0, 0, 1, 0,36) ">
<mask id="Mask_Mask_5">
<g transform="matrix( 1, 0, 0, 1, -545,-328) ">
<use xlink:href="#Mask_P_gina_em_constru__o_psd_Recurso_1_Prancheta_1_Logo_copiar_2_Forma_2_0_1_MASK_0_FILL"/>
</g>
</mask>

<g mask="url(#Mask_Mask_5)">
<g transform="matrix( 1, 0, 0, 1, -545,-328) ">
<use xlink:href="#P_gina_em_constru__o_psd_Recurso_1_Prancheta_1_Logo_copiar_2_Recursos_Forma_2"/>
</g>
</g>
</g>

<g transform="matrix( 1, 0, 0, 1, 0,0) ">
<mask id="Mask_Mask_6">
<g transform="matrix( 1, 0, 0, 1, 0,0) ">
<use xlink:href="#Mask_P_gina_em_constru__o_psd_Recurso_1_Prancheta_1_Logo_copiar_2_Forma_3_0_1_MASK_0_FILL"/>
</g>
</mask>

<g mask="url(#Mask_Mask_6)">
<g transform="matrix( 1, 0, 0, 1, -545,-282.5) ">
<use xlink:href="#P_gina_em_constru__o_psd_Recurso_1_Prancheta_1_Logo_copiar_2_Recursos_Forma_3"/>
</g>
</g>
</g>

<g transform="matrix( 1, 0, 0, 1, 3,19) ">
<mask id="Mask_Mask_7">
<g transform="matrix( 1, 0, 0, 1, 0,0) ">
<use xlink:href="#Mask_P_gina_em_constru__o_psd_Recurso_1_Prancheta_1_Logo_copiar_2_Forma_3_copiar_2_0_1_MASK_0_FILL"/>
</g>
</mask>

<g mask="url(#Mask_Mask_7)">
<g transform="matrix( 1, 0, 0, 1, -548,-311) ">
<use xlink:href="#P_gina_em_constru__o_psd_Recurso_1_Prancheta_1_Logo_copiar_2_Recursos_Forma_3_copiar_2"/>
</g>
</g>
</g>

<g transform="matrix( 1, 0, 0, 1, 0,22) ">
<mask id="Mask_Mask_8">
<g transform="matrix( 1, 0, 0, 1, 0,0) ">
<use xlink:href="#Mask_P_gina_em_constru__o_psd_Recurso_1_Prancheta_1_Logo_copiar_2_Forma_3_copiar_3_0_1_MASK_0_FILL"/>
</g>
</mask>

<g mask="url(#Mask_Mask_8)">
<g transform="matrix( 1, 0, 0, 1, -545,-314) ">
<use xlink:href="#P_gina_em_constru__o_psd_Recurso_1_Prancheta_1_Logo_copiar_2_Recursos_Forma_3_copiar_3"/>
</g>
</g>
</g>
</g>
</g>
</svg>
